<svg width="229" height="65" viewBox="0 0 229 65" fill="none" xmlns="http://www.w3.org/2000/svg">
<g clip-path="url(#clip0_2_41)">
<path d="M47.277 37.4658L49.2163 13.9052C48.342 13.9052 45.0866 12.8334 45.0215 13.3389L44.5844 18.8804C41.8313 15.0987 36.9482 13.0206 32.693 13.0862C24.178 13.2453 15.528 20.1955 14.3375 29.6451C8.69644 32.6217 4.50634 37.2786 4.50634 37.2786L6.38514 0.805062C5.50619 0.805062 1.93926 -0.266727 1.93926 0.238745C1.93926 0.238745 0.502254 38.5376 0 43.8919C0.939401 44.0183 3.56693 45.1509 3.81806 44.711C6.30143 40.1477 11.1426 36.5111 14.3887 34.4424C14.4166 34.653 14.4445 34.8589 14.4817 35.0695C15.5466 40.9901 20.6157 44.8982 26.4986 45.2117C34.4463 45.5908 40.5198 40.4893 43.524 35.1351L42.9613 43.8919C44.0868 44.0183 46.5934 45.2773 46.905 44.5846C49.7836 38.0322 60.61 32.5515 60.61 32.5515C61.4238 32.238 59.2334 30.2207 58.6056 29.2753C52.2205 32.238 47.277 37.4658 47.277 37.4658ZM29.061 40.9948C24.8662 41.4347 19.4205 39.2958 18.6067 33.3097C17.4812 24.9928 25.2429 16.6151 33.0651 17.247C38.1341 17.6261 42.0173 21.2158 43.7054 25.3111C42.58 29.4064 37.2598 40.1757 29.061 40.9948Z" fill="black"/>
<path d="M132.804 12.5574C127.233 12.6183 121.099 16.2736 118.16 21.2488L118.597 13.7509C117.346 13.6245 114.528 12.8055 114.528 13.2454L113.375 30.8293C108.25 36.2398 102.953 39.4364 93.5448 40.2601C88.0386 40.7656 80.8397 37.803 79.9607 32.5751C78.5842 24.2582 86.3458 18.3376 93.4797 16.8259C101.493 15.1269 106.436 19.6621 102.804 22.3673C102.241 22.8073 101.553 23.06 100.739 23.1864C99.9253 23.3128 100.739 25.3908 100.553 27.2161C101.744 27.1553 102.995 26.9634 103.995 26.5234C108.315 24.5718 110.068 19.9102 106.938 16.1285C103.934 12.5387 98.1767 12.0988 93.6053 12.7259C82.7138 14.2985 73.3896 23.1817 75.4544 33.8294C76.5798 39.75 82.2162 43.8452 89.2245 44.5379C98.8743 45.5208 107.422 41.5753 112.979 36.8341L112.528 43.7282C113.156 43.7891 116.723 45.24 116.783 44.4209L117.974 31.068C119.476 22.943 126.047 18.0896 130.181 17.0833C139.194 14.8789 141.199 23.6965 136.129 25.1474C135.818 25.2083 133.311 25.5265 132.06 22.8167C131.684 22.0584 130.372 25.1474 129.056 26.2801C130.307 28.55 134.125 29.7435 137.255 28.99C142.887 27.6046 144.64 21.2441 141.822 17.0224C139.757 13.999 136.376 12.4872 132.809 12.5481L132.804 12.5574Z" fill="black"/>
<path d="M149.132 6.50091C150.886 6.50091 152.323 5.11554 152.323 3.35107C152.323 1.58659 150.881 0.140381 149.132 0.140381C147.384 0.140381 146.003 1.59127 146.003 3.35107C146.003 5.11086 147.379 6.50091 149.132 6.50091Z" fill="black"/>
<path d="M175.989 8.7569L180.435 0.692746C179.309 0.505534 176.366 -0.313519 176.115 0.126429L171.669 8.06422C172.794 8.31695 175.612 9.44959 175.989 8.7569Z" fill="black"/>
<path d="M226.61 29.0975C221.601 37.4752 213.277 41.8232 204.892 40.8778C200.878 40.4472 196.181 38.2147 195.568 32.2239C207.059 27.9181 219.727 27.5858 219.727 27.5858C221.289 22.6714 219.225 12.8475 209.087 12.5292C200.385 12.2765 192.187 19.3952 191.247 28.9711C191.14 30.0055 191.108 30.9837 191.145 31.915C186.513 38.5704 180.077 41.5939 172.315 40.7561C168.26 40.3255 163.526 38.1117 162.916 32.238C174.473 27.9227 187.215 27.5904 187.215 27.5904C188.843 22.6761 186.778 13.1002 176.514 12.6603C167.688 12.2812 159.615 19.6526 158.615 28.9758C158.582 29.2707 158.564 29.5608 158.545 29.8463C152.769 32.8604 148.449 37.4284 148.449 37.4284L150.388 13.8678C149.514 13.8678 146.258 12.796 146.193 13.3015L144.128 43.8545C145.254 43.9808 147.76 45.2398 148.072 44.5472C149.974 40.2179 155.35 36.3566 158.777 34.2365C160.21 41.856 167.069 45.3475 175.263 44.9824C181.811 44.6829 187.731 41.9215 192.187 36.9604C194.563 42.8061 200.702 45.4645 207.84 45.0994C216.29 44.6595 223.74 40.377 228.935 32.5656C229.437 31.8074 227.182 29.8557 226.619 29.1022L226.61 29.0975ZM208.835 16.4373C213.904 16.69 216.286 20.3406 215.969 23.8087C215.969 23.8087 206.306 23.6449 195.828 27.6606C197.27 20.4904 203.139 16.1424 208.835 16.442V16.4373ZM176.263 16.5683C181.397 16.8211 183.774 20.4717 183.462 23.8134C183.462 23.8134 173.771 23.6496 163.195 27.6466C164.651 20.4998 170.566 16.2688 176.263 16.5683Z" fill="black"/>
<path d="M57.0058 52.8923C57.0244 52.0732 56.5687 51.7784 56.2339 51.6707C56.1316 51.6333 56.0199 51.6099 55.9083 51.6099C55.899 51.6099 55.8944 51.6099 55.8944 51.6099C55.3549 51.6099 54.9178 52.0498 54.9178 52.5927C54.9178 53.1356 55.3549 53.5756 55.8944 53.5756C55.9548 53.5756 56.0106 53.5709 56.0664 53.5616C56.0664 53.5616 56.0757 53.5616 56.0804 53.5616C56.1455 53.5475 56.192 53.5615 56.2106 53.6177C56.2432 53.7113 56.2106 53.7488 55.9781 53.8377C55.8758 53.8798 55.6712 53.9266 55.5921 54.0623L54.8759 55.3822H56.0153C56.3408 54.8112 56.5501 54.4695 56.6803 54.2074C56.6803 54.2074 56.6896 54.1934 56.7036 54.1606C56.7361 54.0904 56.764 54.0296 56.7873 53.9687C56.8849 53.7254 57.0105 53.3229 57.0105 52.8969L57.0058 52.8923Z" fill="black"/>
<path d="M3.65994 54.5491C5.70151 54.5491 6.86879 55.9438 6.99901 57.4836H5.62711C5.49689 56.6318 4.85512 55.8408 3.6739 55.8408C2.24619 55.8408 1.3998 57.0296 1.3998 58.4244C1.3998 59.8191 2.24619 61.0079 3.6739 61.0079C4.85512 61.0079 5.49689 60.2169 5.62711 59.3651H6.99901C6.86879 60.9049 5.71547 62.2996 3.65994 62.2996C1.3719 62.2996 0 60.5539 0 58.4244C0 56.2948 1.32539 54.5491 3.65994 54.5491Z" fill="black"/>
<path d="M14.8909 58.8313H9.31962C9.42193 60.0342 10.2404 61.003 11.5937 61.003C12.5982 61.003 13.0958 60.5022 13.3609 59.6364H14.8072C14.5003 61.0311 13.4818 62.2948 11.5705 62.2948C9.22195 62.2948 7.93842 60.549 7.93842 58.4195C7.93842 56.1589 9.39867 54.5442 11.5426 54.5442C13.2074 54.5442 14.9421 55.6441 14.9421 58.3165C14.9421 58.5224 14.9281 58.6675 14.9002 58.8313H14.8909ZM11.6077 55.7798C10.2079 55.7798 9.59399 56.6456 9.38937 57.6566H13.533C13.4446 56.5567 12.747 55.7798 11.6077 55.7798Z" fill="black"/>
<path d="M22.8712 57.7174V62.1778H21.4714V58.0076C21.4714 56.2619 20.7273 55.7751 19.7507 55.7751C18.6718 55.7751 17.5045 56.875 17.5045 58.6675V62.1778H16.1047V54.6612H17.5045V55.162C17.5045 55.4709 17.4766 55.7798 17.3417 56.1589C17.2999 56.2899 17.2394 56.4397 17.3557 56.4678C17.444 56.4959 17.4859 56.3929 17.5184 56.3367C17.8114 55.6019 18.7601 54.5442 20.0995 54.5442C21.8201 54.5442 22.8712 55.513 22.8712 57.7128V57.7174Z" fill="black"/>
<path d="M26.4892 59.8331C26.4892 60.6849 26.666 60.947 27.4798 60.947H28.5866V62.178H27.3635C25.8149 62.178 25.0894 61.607 25.0894 59.9782V55.897H23.6896V54.6614H25.0894V52.5459H26.4892V54.6614H28.5913V55.897H26.4892V59.8331Z" fill="black"/>
<path d="M31.5351 56.2808C32.0001 55.0779 32.4233 54.5491 34.3068 54.5491V55.9859C32.135 55.8408 31.5072 56.6178 31.5072 58.5835V62.178H30.1074V54.6614H31.5072V55.1622C31.5072 55.4711 31.4793 55.7051 31.3444 56.1451C31.3165 56.2621 31.27 56.3791 31.3862 56.4118C31.4607 56.4259 31.5025 56.351 31.5304 56.2808H31.5351Z" fill="black"/>
<path d="M41.4964 58.8313H35.9251C36.0275 60.0342 36.8459 61.003 38.1992 61.003C39.2037 61.003 39.7014 60.5022 39.9664 59.6364H41.4127C41.1058 61.0311 40.0873 62.2948 38.176 62.2948C35.8275 62.2948 34.5439 60.549 34.5439 58.4195C34.5439 56.1589 36.0042 54.5442 38.1481 54.5442C39.813 54.5442 41.5476 55.6441 41.5476 58.3165C41.5476 58.5224 41.5336 58.6675 41.5057 58.8313H41.4964ZM38.2132 55.7798C36.8134 55.7798 36.1995 56.6456 35.9949 57.6566H40.1385C40.0501 56.5567 39.3526 55.7798 38.2132 55.7798Z" fill="black"/>
<path d="M53.0343 62.1826H51.6345V61.5508C51.6345 61.284 51.6624 61.0828 51.7787 60.7598C51.8206 60.6428 51.895 60.5118 51.7508 60.4649C51.6624 60.4369 51.6206 60.5539 51.6066 60.596C51.2578 61.6537 50.2626 62.2996 49.0954 62.2996C47.1561 62.2996 45.7982 60.6568 45.7982 58.4243C45.7982 56.1918 47.1561 54.5491 49.0954 54.5491C50.2905 54.5491 51.2671 55.209 51.6066 56.2246C51.6206 56.2667 51.6624 56.4165 51.7833 56.3697C51.9136 56.3276 51.8252 56.1778 51.7833 56.0608C51.6671 55.7519 51.6392 55.5319 51.6392 55.2558V51.6145H53.039V62.1826H53.0343ZM51.6345 58.4243C51.6345 57.0296 50.7137 55.8408 49.3883 55.8408C47.9281 55.8408 47.2026 57.0296 47.2026 58.4243C47.2026 59.8191 47.9327 61.0079 49.3883 61.0079C50.7137 61.0079 51.6345 59.8191 51.6345 58.4243Z" fill="black"/>
<path d="M60.2426 57.7315C61.5866 57.6285 62.9399 57.7923 62.9259 57.0107C62.912 56.3929 62.5632 55.7798 61.0285 55.7798C59.7171 55.7798 59.2614 56.2806 59.1637 57.0107H57.7918C58.0522 55.293 59.3683 54.5442 61.089 54.5442C62.8097 54.5442 64.3257 55.1292 64.3257 57.8906V62.1778H62.9259V61.457C62.9259 61.1762 62.9539 60.9562 63.0887 60.5771C63.1166 60.446 63.1771 60.329 63.0748 60.2822C62.9585 60.2401 62.9306 60.3571 62.898 60.4273C62.4748 61.5412 61.4843 62.2901 60.1263 62.2901C58.7684 62.2901 57.5593 61.3493 57.5593 60.0716C57.5593 58.354 58.8149 57.8251 60.2426 57.7221V57.7315ZM60.331 58.8594C59.4288 58.9905 58.9591 59.3134 58.9591 60.0061C58.9591 60.6099 59.4567 61.1668 60.6658 61.003C61.8052 60.8579 62.912 60.0201 62.9259 58.1246C62.4748 58.6816 61.4657 58.6956 60.331 58.8594Z" fill="black"/>
<path d="M67.3904 56.2808C67.8555 55.0779 68.2787 54.5491 70.1621 54.5491V55.9859C67.9903 55.8408 67.3625 56.6178 67.3625 58.5835V62.178H65.9627V54.6614H67.3625V55.1622C67.3625 55.4711 67.3346 55.7051 67.1997 56.1451C67.1718 56.2621 67.1253 56.3791 67.2416 56.4118C67.316 56.4259 67.3579 56.351 67.3858 56.2808H67.3904Z" fill="black"/>
<path d="M73.6593 59.8331C73.6593 60.6849 73.836 60.947 74.6498 60.947H75.7567V62.178H74.5336C72.985 62.178 72.2595 61.607 72.2595 59.9782V55.897H70.8597V54.6614H72.2595V52.5459H73.6593V54.6614H75.7613V55.897H73.6593V59.8331Z" fill="black"/>
<path d="M83.9137 54.5491C85.9552 54.5491 87.1225 55.9438 87.2527 57.4836H85.8808C85.7506 56.6318 85.1088 55.8408 83.9276 55.8408C82.4999 55.8408 81.6535 57.0296 81.6535 58.4244C81.6535 59.8191 82.4999 61.0079 83.9276 61.0079C85.1088 61.0079 85.7506 60.2169 85.8808 59.3651H87.2527C87.1225 60.9049 85.9692 62.2996 83.9137 62.2996C81.6256 62.2996 80.2537 60.5539 80.2537 58.4244C80.2537 56.2948 81.5791 54.5491 83.9137 54.5491Z" fill="black"/>
<path d="M95.4236 58.4244C95.4236 60.5539 94.0657 62.2996 91.8055 62.2996C89.5454 62.2996 88.1874 60.5539 88.1874 58.4244C88.1874 56.2948 89.5454 54.5491 91.8055 54.5491C94.0657 54.5491 95.4236 56.2948 95.4236 58.4244ZM94.0238 58.4244C94.0238 57.0015 93.2053 55.8408 91.8055 55.8408C90.4057 55.8408 89.5872 57.0015 89.5872 58.4244C89.5872 59.8472 90.4057 61.0079 91.8055 61.0079C93.2053 61.0079 94.0238 59.8472 94.0238 58.4244Z" fill="black"/>
<path d="M103.357 57.7174V62.1778H101.958V58.0076C101.958 56.2619 101.214 55.7751 100.237 55.7751C99.158 55.7751 97.9907 56.875 97.9907 58.6675V62.1778H96.5909V54.6612H97.9907V55.162C97.9907 55.4709 97.9628 55.7798 97.828 56.1589C97.7861 56.2899 97.7257 56.4397 97.8419 56.4678C97.9303 56.4959 97.9721 56.3929 98.0047 56.3367C98.2977 55.6019 99.2464 54.5442 100.586 54.5442C102.306 54.5442 103.357 55.513 103.357 57.7128V57.7174Z" fill="black"/>
<path d="M106.976 59.8331C106.976 60.6849 107.152 60.947 107.966 60.947H109.073V62.178H107.85C106.301 62.178 105.576 61.607 105.576 59.9782V55.897H104.176V54.6614H105.576V52.5459H106.976V54.6614H109.078V55.897H106.976V59.8331Z" fill="black"/>
<path d="M116.732 58.8313H111.161C111.263 60.0342 112.082 61.003 113.435 61.003C114.44 61.003 114.937 60.5022 115.202 59.6364H116.649C116.342 61.0311 115.323 62.2948 113.412 62.2948C111.063 62.2948 109.78 60.549 109.78 58.4195C109.78 56.1589 111.24 54.5442 113.384 54.5442C115.049 54.5442 116.783 55.6441 116.783 58.3165C116.783 58.5224 116.769 58.6675 116.742 58.8313H116.732ZM113.449 55.7798C112.049 55.7798 111.435 56.6456 111.231 57.6566H115.374C115.286 56.5567 114.588 55.7798 113.449 55.7798Z" fill="black"/>
<path d="M128.442 57.6006V62.1826H127.042V57.4274C127.042 56.2527 126.475 55.7846 125.568 55.7846C124.75 55.7846 123.889 56.5475 123.889 57.9282V62.1873H122.49V57.6053C122.49 56.4305 122.094 55.7846 121.146 55.7846C120.197 55.7846 119.336 56.7535 119.336 58.2511V62.1873H117.937V54.6707H119.336V55.1715C119.336 55.4523 119.309 55.7004 119.174 56.1263C119.146 56.2433 119.099 56.3463 119.202 56.3743C119.304 56.4024 119.346 56.3135 119.364 56.2573C119.727 55.2277 120.587 54.5537 121.611 54.5537C122.559 54.5537 123.303 55.2277 123.522 56.1544C123.536 56.2293 123.582 56.2714 123.666 56.2714C123.768 56.2714 123.796 56.2293 123.824 56.1544C124.22 55.1247 124.978 54.5537 125.894 54.5537C127.294 54.5537 128.433 55.2885 128.433 57.6053L128.442 57.6006Z" fill="black"/>
<path d="M131.214 56.0608C131.172 56.1778 131.084 56.3276 131.214 56.3697C131.33 56.4118 131.377 56.2667 131.391 56.2246C131.828 55.2558 132.702 54.5491 133.902 54.5491C135.841 54.5491 137.199 56.1919 137.199 58.4244C137.199 60.6569 135.841 62.2996 133.902 62.2996C132.735 62.2996 131.846 61.6116 131.391 60.596C131.377 60.5539 131.33 60.4322 131.246 60.465C131.102 60.5071 131.172 60.6428 131.219 60.7598C131.321 61.0828 131.363 61.2887 131.363 61.5508V65.0002H129.963V54.6661H131.363V55.2511C131.363 55.5319 131.321 55.7519 131.219 56.0561L131.214 56.0608ZM135.795 58.4244C135.795 57.0296 135.064 55.8408 133.604 55.8408C132.279 55.8408 131.358 57.0296 131.358 58.4244C131.358 59.8191 132.279 61.0079 133.604 61.0079C135.064 61.0079 135.795 59.8191 135.795 58.4244Z" fill="black"/>
<path d="M145.421 58.4244C145.421 60.5539 144.063 62.2996 141.803 62.2996C139.543 62.2996 138.185 60.5539 138.185 58.4244C138.185 56.2948 139.543 54.5491 141.803 54.5491C144.063 54.5491 145.421 56.2948 145.421 58.4244ZM144.021 58.4244C144.021 57.0015 143.203 55.8408 141.803 55.8408C140.403 55.8408 139.585 57.0015 139.585 58.4244C139.585 59.8472 140.403 61.0079 141.803 61.0079C143.203 61.0079 144.021 59.8472 144.021 58.4244Z" fill="black"/>
<path d="M148.016 56.2808C148.481 55.0779 148.904 54.5491 150.788 54.5491V55.9859C148.616 55.8408 147.988 56.6178 147.988 58.5835V62.178H146.588V54.6614H147.988V55.1622C147.988 55.4711 147.96 55.7051 147.825 56.1451C147.798 56.2621 147.751 56.3791 147.867 56.4118C147.942 56.4259 147.984 56.351 148.011 56.2808H148.016Z" fill="black"/>
<path d="M153.82 57.7315C155.164 57.6285 156.517 57.7923 156.503 57.0107C156.489 56.3929 156.141 55.7798 154.606 55.7798C153.295 55.7798 152.839 56.2806 152.741 57.0107H151.369C151.634 55.293 152.946 54.5442 154.666 54.5442C156.387 54.5442 157.903 55.1292 157.903 57.8906V62.1778H156.503V61.457C156.503 61.1762 156.531 60.9562 156.661 60.5771C156.689 60.446 156.75 60.329 156.648 60.2822C156.531 60.2401 156.503 60.3571 156.471 60.4273C156.048 61.5412 155.057 62.2901 153.699 62.2901C152.341 62.2901 151.132 61.3493 151.132 60.0716C151.132 58.354 152.388 57.8251 153.815 57.7221L153.82 57.7315ZM153.908 58.8594C153.006 58.9905 152.536 59.3134 152.536 60.0061C152.536 60.6099 153.034 61.1668 154.243 61.003C155.383 60.8579 156.489 60.0201 156.503 58.1246C156.052 58.6816 155.043 58.6956 153.908 58.8594Z" fill="black"/>
<path d="M161.224 52.4194C161.224 52.9202 160.838 53.3087 160.354 53.3087C159.87 53.3087 159.489 52.9202 159.489 52.4194C159.489 51.9561 159.875 51.5676 160.354 51.5676C160.833 51.5676 161.224 51.9561 161.224 52.4194ZM161.056 54.6613V62.1779H159.656V54.6613H161.056Z" fill="black"/>
<path d="M169.576 57.7174V62.1778H168.176V58.0076C168.176 56.2619 167.432 55.7751 166.455 55.7751C165.376 55.7751 164.209 56.875 164.209 58.6675V62.1778H162.809V54.6612H164.209V55.162C164.209 55.4709 164.181 55.7798 164.046 56.1589C164.005 56.2899 163.944 56.4397 164.06 56.4678C164.149 56.4959 164.191 56.3929 164.223 56.3367C164.516 55.6019 165.465 54.5442 166.804 54.5442C168.525 54.5442 169.576 55.513 169.576 57.7128V57.7174Z" fill="black"/>
<path d="M186.429 56.2808C186.894 55.0779 187.318 54.5491 189.201 54.5491V55.9859C187.029 55.8408 186.401 56.6178 186.401 58.5835V62.178H185.002V54.6614H186.401V55.1622C186.401 55.4711 186.373 55.7051 186.239 56.1451C186.211 56.2621 186.164 56.3791 186.28 56.4118C186.355 56.4259 186.397 56.351 186.425 56.2808H186.429Z" fill="black"/>
<path d="M196.395 58.8313H190.824C190.926 60.0342 191.745 61.003 193.098 61.003C194.103 61.003 194.6 60.5022 194.865 59.6364H196.312C196.005 61.0311 194.986 62.2948 193.075 62.2948C190.726 62.2948 189.443 60.549 189.443 58.4195C189.443 56.1589 190.903 54.5442 193.047 54.5442C194.712 54.5442 196.446 55.6441 196.446 58.3165C196.446 58.5224 196.433 58.6675 196.405 58.8313H196.395ZM193.112 55.7798C191.712 55.7798 191.098 56.6456 190.894 57.6566H195.037C194.949 56.5567 194.251 55.7798 193.112 55.7798Z" fill="black"/>
<path d="M204.371 57.7174V62.1778H202.971V58.0076C202.971 56.2619 202.227 55.7751 201.25 55.7751C200.172 55.7751 199.004 56.875 199.004 58.6675V62.1778H197.604V54.6612H199.004V55.162C199.004 55.4709 198.976 55.7798 198.842 56.1589C198.8 56.2899 198.739 56.4397 198.855 56.4678C198.944 56.4959 198.986 56.3929 199.018 56.3367C199.311 55.6019 200.26 54.5442 201.599 54.5442C203.32 54.5442 204.371 55.513 204.371 57.7128V57.7174Z" fill="black"/>
<path d="M212.658 57.7174V62.1778H211.258V58.0076C211.258 56.2619 210.514 55.7751 209.538 55.7751C208.459 55.7751 207.291 56.875 207.291 58.6675V62.1778H205.892V54.6612H207.291V55.162C207.291 55.4709 207.264 55.7798 207.129 56.1589C207.087 56.2899 207.026 56.4397 207.143 56.4678C207.231 56.4959 207.273 56.3929 207.305 56.3367C207.598 55.6019 208.547 54.5442 209.886 54.5442C211.607 54.5442 212.658 55.513 212.658 57.7128V57.7174Z" fill="black"/>
<path d="M220.783 58.8313H215.211C215.314 60.0342 216.132 61.003 217.485 61.003C218.49 61.003 218.987 60.5022 219.253 59.6364H220.699C220.392 61.0311 219.373 62.2948 217.462 62.2948C215.114 62.2948 213.83 60.549 213.83 58.4195C213.83 56.1589 215.29 54.5442 217.434 54.5442C219.099 54.5442 220.834 55.6441 220.834 58.3165C220.834 58.5224 220.82 58.6675 220.792 58.8313H220.783ZM217.499 55.7798C216.1 55.7798 215.486 56.6456 215.281 57.6566H219.425C219.336 56.5567 218.639 55.7798 217.499 55.7798Z" fill="black"/>
<path d="M225.07 61.0638C226.498 61.0638 226.893 60.4929 226.893 60.0061C226.893 59.3321 226.265 59.1262 224.559 58.9483C222.606 58.7424 221.992 57.8485 221.992 56.8656C221.992 55.733 223.015 54.5442 225.056 54.5442C226.94 54.5442 227.958 55.63 228.061 57.0388H226.689C226.647 56.552 226.326 55.7751 225.01 55.7751C223.829 55.7751 223.391 56.2619 223.391 56.758C223.391 57.2541 223.671 57.563 225.289 57.7408C227.303 57.9608 228.293 58.5458 228.293 59.7814C228.293 61.3072 227.051 62.2901 225.01 62.2901C222.968 62.2901 221.829 61.2183 221.759 59.5615H223.131C223.145 60.1325 223.615 61.0592 225.07 61.0592V61.0638Z" fill="black"/>
<path d="M172.864 61.6678C174.631 58.6631 177.691 55.8455 181.681 54.3291C181.802 54.5725 182.304 55.3541 182.197 55.4009C177.738 57.0718 175.24 60.0765 173.775 62.529C173.487 62.2997 172.771 61.8223 172.864 61.6725V61.6678Z" fill="black"/>
</g>
<defs>
<clipPath id="clip0_2_41">
<rect width="229" height="65" fill="white"/>
</clipPath>
</defs>
</svg>
