<?xml version="1.0" encoding="UTF-8"?>
<svg id="Calque_2" data-name="Calque 2" xmlns="http://www.w3.org/2000/svg" viewBox="0 0 292.16 191.35">
  <defs>
    <style>
      .cls-1 {
        fill: #1d1d1b;
      }
    </style>
  </defs>
  <g id="Calque_1-2" data-name="Calque 1">
    <g>
      <polygon class="cls-1" points="37.42 178.16 39.52 178.16 39.52 189.98 44.4 189.98 44.4 191.35 37.42 191.35 37.42 178.16 37.42 178.16"/>
      <polygon class="cls-1" points="51.65 178.16 58.61 178.16 58.61 179.42 53.75 179.42 53.75 183.86 58.34 183.86 58.34 185.12 53.75 185.12 53.75 189.98 58.76 189.98 58.76 191.35 51.65 191.35 51.65 178.16 51.65 178.16"/>
      <path class="cls-1" d="m79.76,190.09h.86c3.25,0,3.88-1.93,3.88-5.47,0-4.65-1.68-5.2-3.88-5.2h-.86v10.67h0Zm-2.1-11.93h2.96c3.61,0,5.99,1.24,5.99,6.46,0,5.49-2.35,6.73-5.99,6.73h-2.96v-13.2h0Z"/>
      <polygon class="cls-1" points="94.73 178.16 101.7 178.16 101.7 179.42 96.84 179.42 96.84 183.86 101.43 183.86 101.43 185.12 96.84 185.12 96.84 189.98 101.85 189.98 101.85 191.35 94.73 191.35 94.73 178.16 94.73 178.16"/>
      <path class="cls-1" d="m111.79,184.28h.61c1.59,0,3-.21,3-2.49,0-2.01-1.15-2.37-3-2.37h-.61v4.86h0Zm-2.11-6.12h2.72c2.91,0,5.11.54,5.11,3.63,0,3.58-3.14,3.73-5.11,3.75h-.61v5.81h-2.11v-13.2h0Z"/>
      <path class="cls-1" d="m127.13,186.17h3.77l-1.85-6.12h-.04l-1.87,6.12h0Zm.94-8.01h2.18l4.42,13.2h-2.18l-1.21-3.92h-4.55l-1.21,3.92h-1.85l4.4-13.2h0Z"/>
      <path class="cls-1" d="m144.21,184.22h.78c1.34,0,3.02-.42,3.02-2.51,0-1.78-1.03-2.3-3.02-2.3h-.78v4.8h0Zm-2.1-6.06h2.89c2.22,0,5.13.31,5.13,3.46,0,2.12-1.7,2.87-2.83,3.08v.04c1.99.32,2.26,1.64,2.58,3.19l.71,3.42h-2.12l-.75-3.52c-.29-1.13-.67-2.35-2.72-2.35h-.78v5.87h-2.1v-13.2h0Z"/>
      <polygon class="cls-1" points="160.14 179.42 156.95 179.42 156.95 178.16 165.44 178.16 165.44 179.42 162.25 179.42 162.25 191.35 160.14 191.35 160.14 179.42 160.14 179.42"/>
      <polygon class="cls-1" points="172.71 178.16 179.67 178.16 179.67 179.42 174.81 179.42 174.81 183.86 179.4 183.86 179.4 185.12 174.81 185.12 174.81 189.98 179.82 189.98 179.82 191.35 172.71 191.35 172.71 178.16 172.71 178.16"/>
      <polygon class="cls-1" points="187.68 178.16 190.5 178.16 194.15 188.89 194.19 188.89 197.86 178.16 200.57 178.16 200.57 191.35 198.68 191.35 198.68 179.95 198.64 179.95 194.78 191.35 193.17 191.35 189.31 179.95 189.27 179.95 189.27 191.35 187.68 191.35 187.68 178.16 187.68 178.16"/>
      <polygon class="cls-1" points="209.35 178.16 216.32 178.16 216.32 179.42 211.46 179.42 211.46 183.86 216.05 183.86 216.05 185.12 211.46 185.12 211.46 189.98 216.47 189.98 216.47 191.35 209.35 191.35 209.35 178.16 209.35 178.16"/>
      <polygon class="cls-1" points="224.33 178.16 226.66 178.16 231.9 188.6 231.94 188.6 231.94 178.16 233.68 178.16 233.68 191.35 231.5 191.35 226.11 180.6 226.07 180.6 226.07 191.35 224.33 191.35 224.33 178.16 224.33 178.16"/>
      <polygon class="cls-1" points="244.14 179.42 240.95 179.42 240.95 178.16 249.44 178.16 249.44 179.42 246.24 179.42 246.24 191.35 244.14 191.35 244.14 179.42 244.14 179.42"/>
      <path class="cls-1" d="m43.4,160.02c-1.96-.21-2.38-.21-2.38-3.86v-32.92c-2.23,0-6.51.48-8.21.85l.16,1.16.79-.11c.11,0,.48-.05.74-.05,1.9,0,1.9,2.43,1.9,6.61v24.46c0,3.65-.48,3.65-2.33,3.86l-1.27.16v1.17h11.8v-1.17l-1.22-.16h0Z"/>
      <path class="cls-1" d="m69.44,157.96c-.74.37-2.75,1.69-5.98,1.69-7.15,0-9.69-6.25-9.9-9.53,4.55-1.06,10.69-2.7,16.73-5.66-.69-2.86-2.22-7.99-9.32-7.99-6.09,0-12.28,4.76-12.28,13.71,0,7.52,5.45,11.96,12.12,11.96,4.82,0,8.42-2.17,9.27-2.96l-.64-1.21h0Zm-10-19.64c4.02,0,5.35,3.18,6.08,6.46-3.7,1.22-8.15,2.33-11.96,3.02,0-3.87,1.38-9.48,5.88-9.48h0Z"/>
      <path class="cls-1" d="m135.48,131.81c-.79-1.96-1.38-3.92-3.12-4.08l-1.53-.16v-1.16h13.18v1.16l-1.64.16c-.85.11-2.38.26-2.38,1.32,0,.27.43,1.48.69,2.12l9.16,23.61c1.22-3.18,9.53-23.77,9.53-25.41,0-1.06-1.06-1.33-2.07-1.49l-2.38-.32v-1.16h11.43v1.16l-1.38.32c-.58.11-1.16.43-1.59.85-1.17,1.17-2.86,6.25-4.18,8.79l-3.6,8.68c-3.02,7.3-5.66,13.76-6.14,15.14-.27.21-1.11.58-1.8.79l-12.18-30.33h0Z"/>
      <path class="cls-1" d="m220.65,160.07c-.21.1-.42.21-.95.21-2.91,0-2.91-3.97-2.91-7.68v-7.57c0-5.4-1.27-8.57-7.3-8.57-5.61,0-9,3.54-10.59,5.66.37.95.79,1.48,1.38,2.12h.42c1-1.96,2.33-5.29,6.56-5.29,3.97,0,4.92,3.01,4.92,6.51v1.22c-4.66,1.38-13.82,3.44-13.82,10.32,0,2.91,2.65,5.13,6.56,5.13,4.13,0,6.09-1.11,7.78-2.22.53,1.11,1.48,2.22,4.18,2.22,2.22,0,3.33-.84,4.02-1.32l-.26-.74h0Zm-8.47-10.9v8.95c-.37.53-1.7,2.17-4.02,2.17-3.02,0-4.92-1.8-4.92-4.82,0-4.97,5.19-6.3,8.21-6.3h.74Z"/>
      <path class="cls-1" d="m291.31,157.96c-.74.37-2.75,1.69-5.98,1.69-7.15,0-9.69-6.25-9.9-9.53,4.55-1.06,10.69-2.7,16.72-5.66-.69-2.86-2.22-7.99-9.31-7.99-6.09,0-12.28,4.76-12.28,13.71,0,7.52,5.45,11.96,12.12,11.96,4.82,0,8.42-2.17,9.26-2.96l-.63-1.21h0Zm-10-19.64c4.02,0,5.35,3.18,6.09,6.46-3.71,1.22-8.15,2.33-11.96,3.02,0-3.87,1.37-9.48,5.87-9.48h0Z"/>
      <path class="cls-1" d="m164.99,76.03c14.63,0,26.45-10.65,26.39-23.76-.06-13.11-11.96-23.73-26.59-23.73-14.63.01-26.45,10.65-26.4,23.76.05,13.11,11.96,23.74,26.59,23.72h0Z"/>
      <path class="cls-1" d="m188.42,93.75c-8.38-3.69-53.84-23.42-102.93-39.34l1,22.41c50.88,16.45,97.98,37.08,104.18,39.82l-2.25-22.89h0Z"/>
      <path class="cls-1" d="m179.21,0c-52.66,4.07-92.62,15.04-95.44,15.83l.96,21.6c5.52-1.45,46.03-11.72,96.62-15.67L179.21,0h0Z"/>
      <polygon class="cls-1" points="98.45 122.85 95.85 126.13 94.1 122.85 96.7 119.57 98.45 122.85 98.45 122.85"/>
      <polygon class="cls-1" points="101.36 127.05 98.76 130.32 97.01 127.05 99.61 123.77 101.36 127.05 101.36 127.05"/>
      <polygon class="cls-1" points="94.5 127.01 91.9 130.29 90.14 127.01 92.75 123.74 94.5 127.01 94.5 127.01"/>
      <path class="cls-1" d="m102.91,159.21c-7.86,0-13.02-4.64-13.02-11.41,0-4.9,2.64-7.09,4.9-8.44.21.25.44.48.65.73.01.01.02.03.03.04h0c5.8,6.59,11.97,11.19,17.43,15.47-1.1,1.22-4.51,3.61-9.99,3.61h0Zm15.14-5.61c1.48-2,4-4.9,4-11.02,0-6.58-4.64-10.51-8.44-10.51-1.87,0-3.42.71-4.97,1.29v.58c3.42.84,9.54,4.18,9.54,12.11,0,2.06-.77,4.32-1.94,5.93-4.96-3.93-13.02-11.15-16.95-15.66.26-.26,9.67-5.87,9.67-12.25,0-3.61-2.51-6.31-6.51-6.31-.96,0-2.86.42-2.86.42,3.96,2.23,4.35,4.48,4.35,4.48.33.86.51,1.88.51,2.96,0,4.83-4.27,7.71-6.38,9.02-.04.02-.09.06-.14.09-1.03-1.42-2.28-3.72-2.42-6.77,0,0-3.12,4.98-1.69,9.41-.04.03-.09.06-.09.06-3.09,2.06-9.78,6.11-9.78,13.01s7.09,11.79,14.69,11.79c9.21,0,13.34-3.22,16.05-5.15,3.16,2.38,6.89,5.35,8.25,7.6h.84c0-3.93-1.68-7.67-5.74-11.08h0Z"/>
      <path class="cls-1" d="m10.96,129.2l1.91-.16v-1.17H0v1.17l1.9.16c2.07.21,2.07.48,2.07,6.93v16.95c0,1.5,0,2.66-.03,3.57v4.69s8.92,0,8.92,0v-1.17l-1.91-.16c-2.06-.21-2.06-.47-2.06-6.93v-16.95c0-6.46,0-6.72,2.06-6.93h0Z"/>
      <path class="cls-1" d="m27.73,160.02c-1.96-.21-2.38-.21-2.38-3.86v-32.92c-2.22,0-6.51.48-8.2.85l.16,1.16.79-.11c.11,0,.48-.05.74-.05,1.91,0,1.91,2.43,1.91,6.61v24.46c0,.49-.01.92-.03,1.29v3.9s8.23,0,8.23,0v-1.17l-1.22-.16h0Z"/>
      <path class="cls-1" d="m171.4,134c1.75,0,2.97-1.43,2.97-2.96s-1.22-2.97-2.97-2.97-2.96,1.38-2.96,2.97,1.22,2.96,2.96,2.96h0Z"/>
      <path class="cls-1" d="m176.64,160.02c-1.96-.21-2.38-.31-2.38-3.86v-19.69c-1.85,0-6.67,1.38-8.2,1.85l.21,1.27,1.16-.32c.11,0,.48-.05.74-.05,1.48,0,1.48,1.48,1.48,6.67v10.27c0,.46,0,.86-.03,1.22v3.97s8.23,0,8.23,0v-1.17l-1.22-.16h0Z"/>
      <path class="cls-1" d="m192.75,160.02c-1.96-.21-2.38-.21-2.38-3.86v-32.92c-2.22,0-6.51.48-8.2.85l.16,1.16.79-.11c.1,0,.47-.05.74-.05,1.91,0,1.91,2.43,1.91,6.61v24.46c0,.48,0,.89-.03,1.25v3.94s8.23,0,8.23,0v-1.17l-1.22-.16h0Z"/>
      <path class="cls-1" d="m228.96,134c1.75,0,2.96-1.43,2.96-2.96s-1.21-2.97-2.96-2.97-2.96,1.38-2.96,2.97,1.22,2.96,2.96,2.96h0Z"/>
      <path class="cls-1" d="m234.2,160.02c-1.96-.21-2.38-.31-2.38-3.86v-19.69c-1.85,0-6.67,1.38-8.21,1.85l.22,1.27,1.16-.32c.11,0,.48-.05.74-.05,1.48,0,1.48,1.48,1.48,6.67v10.27c0,.4,0,.75-.02,1.07v4.12s8.23,0,8.23,0v-1.17l-1.22-.16h0Z"/>
      <path class="cls-1" d="m266.01,160.02c-1.96-.21-2.38-.47-2.38-3.86v-7.89c0-6.09,0-11.8-8.26-11.8-4.02,0-6.88,2.22-8.1,3.33v-3.33c-1.85,0-6.67,1.38-8.21,1.85l.21,1.27,1.17-.32c.1,0,.47-.05.74-.05,1.48,0,1.48,1.48,1.48,6.67v10.27c0,.34,0,.64-.02.91v4.28s8.22,0,8.22,0v-1.17l-1.22-.16c-1.96-.21-2.38-.47-2.38-3.86v-14.34c.95-1.22,2.65-2.86,5.45-2.86,6.3,0,6.3,5.14,6.3,10.11v7.09c0,.46,0,.85-.03,1.2v3.99s8.23,0,8.23,0v-1.17l-1.22-.16h0Z"/>
    </g>
  </g>
</svg>