<?xml version="1.0" encoding="UTF-8"?>
<svg id="Calque_2" data-name="Calque 2" xmlns="http://www.w3.org/2000/svg" viewBox="0 0 254.02 178.57">
  <defs>
    <style>
      .cls-1 {
        fill: #1d1d1b;
      }
    </style>
  </defs>
  <g id="Calque_1-2" data-name="Calque 1">
    <polygon class="cls-1" points=".08 47.17 6.14 47.17 11.86 56.92 17.58 47.17 23.63 47.17 23.63 70.86 18.83 70.86 18.83 54.01 13.55 62.73 10.17 62.73 4.89 54.01 4.89 70.86 .08 70.86 .08 47.17"/>
    <rect class="cls-1" x="30.23" y="47.17" width="4.8" height="23.69"/>
    <polygon class="cls-1" points="41.67 47.17 47.82 47.17 58.41 64.12 58.41 47.17 63.22 47.17 63.22 70.86 57.06 70.86 46.47 53.84 46.47 70.86 41.67 70.86 41.67 47.17"/>
    <rect class="cls-1" x="69.85" y="47.17" width="4.8" height="23.69"/>
    <path class="cls-1" d="m82.64,64.36c1.42,1.83,3.32,2.91,5.24,2.91s3.04-1.01,3.04-2.74c0-4.23-10.83-3.28-10.83-11.17,0-3.75,3.08-6.87,7.58-6.87,3.55,0,6.29,1.59,8.29,3.99l-3.52,3.15c-1.39-1.79-2.94-2.94-4.74-2.94-1.66,0-2.74,1.08-2.74,2.47,0,4.23,10.83,3.25,10.83,11.27-.07,4.4-3.52,7.11-7.85,7.11-3.99,0-6.7-1.46-8.8-3.96l3.48-3.21Z"/>
    <polygon class="cls-1" points="98.24 47.17 117.66 47.17 117.66 51.54 110.35 51.54 110.35 70.86 105.55 70.86 105.55 51.54 98.24 51.54 98.24 47.17"/>
    <path class="cls-1" d="m121.89,47.17h13.8v4.09h-9v5.48h7.65v4.09h-7.65v5.92h9v4.1h-13.8v-23.68Zm.41-6.6h4.94l3.82,4.57h-4.4l-4.37-4.57Z"/>
    <path class="cls-1" d="m141.28,47.17h7.24c5.21,0,8.42,2.67,8.42,7.07,0,2.84-1.39,4.97-3.79,6.12l7.44,10.49h-5.75l-6.29-9.58h-2.47v9.58h-4.81v-23.68Zm4.81,4.09v5.92h2.71c2.03,0,3.21-1.08,3.21-3.01,0-1.79-1.18-2.91-3.21-2.91h-2.71Z"/>
    <polygon class="cls-1" points="163.58 47.17 177.38 47.17 177.38 51.27 168.38 51.27 168.38 56.75 176.03 56.75 176.03 60.84 168.38 60.84 168.38 66.76 177.38 66.76 177.38 70.86 163.58 70.86 163.58 47.17"/>
    <path class="cls-1" d="m.08,81.32h9.31c7.51,0,12.59,5.45,12.59,11.84s-5.08,11.84-12.59,11.84H.08v-23.68Zm4.81,4.37v14.95h4.57c4.4,0,7.58-3.28,7.58-7.48s-3.18-7.48-7.58-7.48h-4.57Z"/>
    <polygon class="cls-1" points="26.61 81.32 40.41 81.32 40.41 85.42 31.41 85.42 31.41 90.9 39.06 90.9 39.06 94.99 31.41 94.99 31.41 100.91 40.41 100.91 40.41 105.01 26.61 105.01 26.61 81.32"/>
    <polygon class="cls-1" points="54.79 81.32 59.6 81.32 59.6 100.64 68.6 100.64 68.6 105.01 54.79 105.01 54.79 81.32"/>
    <path class="cls-1" d="m79.83,81.32h6.29l8.97,23.69h-5.11l-2.27-6.16h-9.47l-2.27,6.16h-5.11l8.96-23.69Zm6.4,13.43l-3.25-8.9-3.25,8.9h6.5Z"/>
    <path class="cls-1" d="m124.29,97.94l3.79,2.91c-2.17,2.95-5.69,4.84-9.98,4.84-7.48,0-12.59-5.75-12.59-12.52s5.11-12.52,12.59-12.52c4.3,0,7.82,1.93,9.98,4.8l-3.79,2.94c-1.35-1.93-3.49-3.25-6.19-3.25-4.47,0-7.65,3.49-7.65,8.02s3.18,8.02,7.65,8.02c2.71,0,4.84-1.32,6.19-3.25"/>
    <path class="cls-1" d="m145.95,81.32h4.8v14.41c0,6.23-3.66,9.95-9.61,9.95s-9.57-3.72-9.57-9.95v-14.41h4.8v14.82c0,3.18,1.79,5.04,4.8,5.04s4.77-1.86,4.77-5.04v-14.82Z"/>
    <polygon class="cls-1" points="156.71 81.32 161.51 81.32 161.51 100.64 170.51 100.64 170.51 105.01 156.71 105.01 156.71 81.32"/>
    <polygon class="cls-1" points="169.53 81.32 188.95 81.32 188.95 85.69 181.64 85.69 181.64 105.01 176.84 105.01 176.84 85.69 169.53 85.69 169.53 81.32"/>
    <path class="cls-1" d="m207.16,81.32h4.81v14.41c0,6.23-3.65,9.95-9.61,9.95s-9.58-3.72-9.58-9.95v-14.41h4.8v14.82c0,3.18,1.79,5.04,4.8,5.04s4.77-1.86,4.77-5.04v-14.82Z"/>
    <path class="cls-1" d="m217.92,81.32h7.24c5.21,0,8.42,2.67,8.42,7.07,0,2.84-1.39,4.97-3.79,6.12l7.44,10.49h-5.75l-6.29-9.57h-2.47v9.57h-4.8v-23.68Zm4.8,4.09v5.92h2.71c2.03,0,3.21-1.08,3.21-3.01,0-1.79-1.18-2.91-3.21-2.91h-2.71Z"/>
    <polygon class="cls-1" points="240.21 81.32 254.02 81.32 254.02 85.42 245.02 85.42 245.02 90.9 252.66 90.9 252.66 94.99 245.02 94.99 245.02 100.91 254.02 100.91 254.02 105.01 240.21 105.01 240.21 81.32"/>
    <path class="cls-1" d="m77.15,170.41c.64,0,1.2.49.9,1.72l-2.99.7c.52-1.39,1.39-2.41,2.08-2.41m1.65,4.81h-.59c-.75.88-1.55,1.58-2.34,1.58s-1.23-.49-1.23-1.58c0-.45.05-.9.14-1.32l4.81-1.58c.94-2.22-.19-3.2-1.51-3.2-2.27,0-4.86,3.8-4.86,7.14,0,1.49.71,2.31,1.82,2.31,1.3,0,2.66-1.27,3.77-3.35m-.96-6.98l3.38-3.16v-.36h-1.82l-2.08,3.53h.52Zm-10.38,2.22h1.6l-2.54,6.93c-.22.59.09,1.18.7,1.18,1.44,0,3.77-1.42,4.58-3.37h-.45c-.64.68-1.88,1.58-2.94,1.77l2.33-6.51h2.38l.29-.99h-2.31l.88-2.5h-.92l-1.65,2.5-1.96.28v.71Zm-2.15-.33c.19-.64-.24-1.01-.57-1.01-1.39,0-3.04,1.25-3.7,3.01h.45c.45-.64,1.21-1.35,1.93-1.48l-2.66,6.91c-.24.64.24,1.01.57,1.01,1.32,0,2.87-1.27,3.52-3.01h-.45c-.45.64-1.22,1.36-1.93,1.48l2.83-6.91Zm.49-3.47c.62,0,1.15-.5,1.15-1.14s-.52-1.15-1.15-1.15-1.15.52-1.15,1.15.5,1.14,1.15,1.14m-15.3,10.63c-.35.78.02,1.29.78,1.29.47,0,.68-.12.87-.62l1.84-4.88c.85-1.04,2.61-2.15,3.3-2.15.5,0,.44.42.1,1.04l-2.83,5.44c-.28.54.09,1.18.7,1.18,1.39,0,3.04-1.25,3.7-3.01h-.45c-.45.64-1.22,1.36-1.93,1.48l2.43-4.91c.31-.62.47-1.22.47-1.68,0-.8-.45-1.32-1.29-1.32-1.2,0-2.41,1.36-3.85,3.02v-1.29c0-.92-.29-1.74-1.13-1.74-.52,0-1.02.45-1.49,1.1v.17c.9-.05,1.3,1.3.66,2.73l-1.88,4.17Zm-.03-6.04c.33-1.13.16-2.12-.71-2.12-1.02,0-1.28.78-2.33,3.02v-1.29c0-.92-.29-1.74-1.13-1.74-.97,0-1.86,1.51-2.54,3.01h.45c.47-.68.9-1.08,1.25-1.08.42,0,.64.64,0,2.07l-1.88,4.17c-.35.78.02,1.29.78,1.29.47,0,.68-.12.87-.62l1.84-4.88c.52-.64.99-1.2,1.58-1.82h1.81Zm-10.66-.83c.64,0,1.2.49.9,1.72l-2.99.7c.52-1.39,1.39-2.41,2.08-2.41m1.65,4.81h-.59c-.75.88-1.55,1.58-2.34,1.58s-1.23-.49-1.23-1.58c0-.45.05-.9.14-1.32l4.81-1.58c.94-2.22-.19-3.2-1.51-3.2-2.27,0-4.86,3.8-4.86,7.14,0,1.49.71,2.31,1.82,2.31,1.3,0,2.66-1.27,3.77-3.35m-11.34-4.76h1.6l-2.54,6.93c-.23.59.09,1.18.69,1.18,1.44,0,3.77-1.42,4.59-3.37h-.45c-.64.68-1.88,1.58-2.93,1.77l2.33-6.51h2.38l.3-.99h-2.31l.88-2.5h-.92l-1.65,2.5-1.96.28v.71Zm-8.77,5.4c0-2.14,2.38-5.04,3.72-5.04.3,0,.57.04.82.11l-1.39,3.7c-.8.97-2.03,2.15-2.61,2.15-.33,0-.54-.28-.54-.92m7.31-7.14l-.73-.05-.82.8h-.17c-3.96,0-7.38,4.45-7.38,7.68,0,.9.55,1.42,1.42,1.42,1.03,0,2.03-1.46,3.16-3.02l-.05.55c-.14,1.6.35,2.47,1.18,2.47.97,0,1.86-1.51,2.54-3.01h-.45c-.47.68-.9,1.08-1.25,1.08s-.62-.66,0-2.07l2.55-5.85Zm-8.44,2.52c.33-1.13.16-2.12-.71-2.12-1.03,0-1.29.78-2.33,3.02v-1.29c0-.92-.3-1.74-1.13-1.74-.97,0-1.86,1.51-2.53,3.01h.45c.47-.68.9-1.08,1.25-1.08.42,0,.64.64,0,2.07l-1.88,4.17c-.35.78.02,1.29.78,1.29.47,0,.68-.12.87-.62l1.84-4.88c.52-.64.99-1.2,1.58-1.82h1.81Zm-13.3,6.98l.17-.54c-2.31-.43-2.61-.43-1.69-2.95l.94-2.59h2.55c1.15,0,1.16.47.99,1.72h.66l1.53-4.19h-.66c-.57.99-1.03,1.72-2.28,1.72h-2.52l1.34-3.66c.42-1.16.66-1.41,2.22-1.41h1.11c1.62,0,1.81.44,1.81,2.07h.64l.54-2.85H4.69l-.17.54c1.86.38,2.03.56,1.16,2.95l-2.08,5.7c-.87,2.38-1.23,2.57-3.37,2.95l-.16.54h6.84Z"/>
    <path class="cls-1" d="m53.9,148.7c.64,0,1.2.49.9,1.72l-2.99.7c.52-1.39,1.39-2.41,2.09-2.41m1.65,4.81h-.59c-.75.88-1.55,1.58-2.34,1.58s-1.23-.49-1.23-1.58c0-.45.05-.9.14-1.32l4.81-1.58c.94-2.22-.19-3.2-1.51-3.2-2.28,0-4.86,3.8-4.86,7.14,0,1.49.71,2.31,1.82,2.31,1.3,0,2.66-1.27,3.77-3.35m-.95-6.98l3.39-3.16v-.37h-1.82l-2.08,3.53h.52Zm-10.38,2.22h1.6l-2.54,6.93c-.22.59.09,1.18.7,1.18,1.44,0,3.77-1.42,4.59-3.37h-.45c-.64.68-1.88,1.58-2.94,1.77l2.33-6.51h2.38l.29-.99h-2.31l.89-2.5h-.92l-1.65,2.5-1.96.28v.71Zm-2.15-.33c.19-.64-.24-1.01-.57-1.01-1.39,0-3.04,1.25-3.7,3h.45c.45-.64,1.22-1.35,1.93-1.47l-2.66,6.91c-.24.64.24,1.01.57,1.01,1.32,0,2.87-1.27,3.53-3h-.45c-.45.64-1.22,1.35-1.93,1.48l2.83-6.91Zm.49-3.47c.62,0,1.15-.5,1.15-1.15s-.52-1.14-1.15-1.14-1.15.52-1.15,1.14.5,1.15,1.15,1.15m-9.24,10.38l4.85-12.7-.16-.19-3.04.35v.37l.59.45c.54.42.37.82-.12,2.1l-3.79,9.97c-.28.54.09,1.18.69,1.18,1.39,0,2.87-1.25,3.53-3h-.45c-.45.64-1.39,1.35-2.1,1.48m-9.2-1.18c0-2.14,2.38-5.04,3.72-5.04.29,0,.57.03.82.1l-1.39,3.7c-.8.97-2.03,2.15-2.6,2.15-.33,0-.54-.28-.54-.92m7.31-7.14l-.73-.05-.82.8h-.17c-3.96,0-7.38,4.45-7.38,7.68,0,.9.56,1.42,1.42,1.42,1.03,0,2.03-1.46,3.16-3.02l-.05.55c-.14,1.6.35,2.47,1.18,2.47.97,0,1.86-1.51,2.54-3h-.45c-.47.68-.9,1.08-1.25,1.08-.37,0-.62-.66,0-2.07l2.55-5.85Zm-17.68,11.53c0-.92.89-1.49,2.15-2,.42.21,1.04.43,1.88.71,1.32.44,1.82.61,1.82,1.01,0,.85-1.44,1.49-3.4,1.49-1.65,0-2.45-.35-2.45-1.21m3.59-5.61c-.57,0-.8-.49-.8-1.04,0-1.54.83-3.82,2.13-3.82.57,0,.8.49.8,1.04,0,1.54-.83,3.82-2.14,3.82m3.77,4.76c0-1.11-.99-1.51-2.61-2-1.39-.42-2.01-.54-2.01-.99,0-.37.29-.8.89-1.11,2.27-.12,3.75-2.17,3.75-3.89,0-.37-.07-.68-.19-.95h1.93l.29-.99h-3.06c-.37-.22-.8-.35-1.23-.35-2.41,0-3.98,2.12-3.98,3.84,0,1.3.83,2.12,1.84,2.31-1.13.5-1.75,1.09-1.75,1.79,0,.4.14.68.47.94-2.6.76-3.63,1.63-3.63,2.87s1.58,1.7,3.46,1.7c3.18,0,5.84-1.72,5.84-3.16m-12.14-7.43c1.15,0,1.16.47.99,1.72h.66l1.53-4.19h-.66c-.57.99-1.02,1.72-2.27,1.72h-2.52l1.27-3.49c.42-1.16.66-1.39,2.22-1.39h1.11c1.62,0,1.81.44,1.81,2.05h.64l.54-2.85H4.69l-.17.54c1.86.38,2.03.56,1.16,2.95l-2.08,5.7c-.87,2.38-1.23,2.57-3.37,2.95l-.16.54h10.66l1.91-3.02h-.73c-1.22,1.15-2.74,2.24-4.88,2.24-2.83,0-2.57-.12-1.63-2.71l1.01-2.76h2.55Zm1.39-7.28l3.39-2.33v-.37h-2.05l-1.88,2.69h.54Z"/>
    <path class="cls-1" d="m52.77,126.99c.64,0,1.2.48.9,1.72l-2.99.69c.52-1.39,1.39-2.41,2.08-2.41m1.65,4.81h-.59c-.75.89-1.54,1.58-2.34,1.58s-1.23-.49-1.23-1.58c0-.45.05-.9.14-1.32l4.81-1.58c.94-2.22-.19-3.19-1.51-3.19-2.27,0-4.86,3.8-4.86,7.14,0,1.49.71,2.31,1.82,2.31,1.3,0,2.66-1.27,3.77-3.35m-.96-6.98l3.39-3.16v-.37h-1.82l-2.08,3.53h.52Zm-9.95,2.22h1.27l-2.54,6.93c-.23.59.09,1.18.69,1.18,1.44,0,3.77-1.42,4.59-3.37h-.45c-.64.68-1.88,1.58-2.93,1.77l2.33-6.51h2.38l.29-.99h-2.31l.89-2.5h-.92l-1.65,2.5-1.63.28v.71Zm-1.25.78c.33-1.13.16-2.12-.71-2.12-1.02,0-1.29.78-2.33,3.02v-1.29c0-.92-.29-1.73-1.13-1.73-.97,0-1.86,1.51-2.54,3h.45c.47-.68.9-1.08,1.25-1.08.42,0,.64.64,0,2.07l-1.88,4.17c-.35.78.02,1.29.78,1.29.47,0,.68-.12.87-.62l1.84-4.88c.52-.64.99-1.2,1.58-1.82h1.81Zm-10.66-.83c.64,0,1.2.48.9,1.72l-2.99.69c.52-1.39,1.39-2.41,2.08-2.41m1.65,4.81h-.59c-.75.89-1.54,1.58-2.34,1.58s-1.23-.49-1.23-1.58c0-.45.05-.9.14-1.32l4.81-1.58c.94-2.22-.19-3.19-1.51-3.19-2.27,0-4.86,3.8-4.86,7.14,0,1.49.71,2.31,1.82,2.31,1.3,0,2.66-1.27,3.77-3.35m-11.79,1.95c-.47,0-1.15-.43-1.15-.82,0-.12.21-.66.47-1.34l.78-2.07c.84-.99,2.1-2.05,2.81-2.05.43,0,.76.28.76.92,0,1.89-1.77,5.35-3.68,5.35m5.47-6.11c0-1.41-.52-1.93-1.49-1.93-1.22,0-2.36,1.29-3.51,2.85l2.9-7.62-.16-.19-3.04.35v.36l.59.45c.54.42.37.85-.12,2.1l-3.13,8.06c-.23.59-.5,1.29-.5,1.47,0,.83,1.13,1.62,2.15,1.62,2.36,0,6.3-4.25,6.3-7.52m-9.45-.92c.19-.64-.24-1.01-.57-1.01-1.39,0-3.04,1.25-3.7,3h.45c.45-.64,1.22-1.36,1.93-1.48l-2.66,6.91c-.24.64.24,1.01.57,1.01,1.32,0,2.86-1.27,3.52-3h-.45c-.45.64-1.21,1.36-1.93,1.48l2.83-6.91Zm.49-3.47c.62,0,1.15-.5,1.15-1.15s-.52-1.14-1.15-1.14-1.15.52-1.15,1.14.5,1.15,1.15,1.15m-7-1.11h-6.32l-.17.54c1.86.38,2.03.55,1.16,2.95l-2.05,5.7c-.87,2.38-1.23,2.57-3.37,2.95l-.16.54h9.62l2.08-3.71h-.73c-1.18,1.3-2.57,2.93-4.71,2.93-1.62,0-1.81-.28-.94-2.71l2.05-5.7c.85-2.38,1.23-2.57,3.37-2.95l.16-.54Z"/>
    <path class="cls-1" d="m35.75,27.74c.34-.34.68-.7,1.02-1.06h0c.63-.71,1.25-1.4,1.98-2.02.22-.2.44-.37.65-.52.06-.06.06-.18.12-.24-.3.12-.48.36-.77.48-.06,0-.12-.06-.06-.12.21-.16.42-.32.63-.48-.01,0-.03,0-.04,0-.06,0-.06-.06-.06-.12-.77-.12-1.37.42-1.9.89-.12.06-.24-.06-.3-.06-.89.3-1.54,1.07-2.44,1.43v-.12c-.36.12-.7.33-1.07.42-.54.12-1.01.06-1.49.06-.72.07-1.44.23-2.16.38-.02,0-.04,0-.06.02-.39.11-.75.25-1.11.45-.01,0-.03.01-.04.02-.03.04-.06.07-.09.1-.13.14-.24.27-.41.36-.37.19-.66.51-.99.77-.02.02-.06.03-.1.03-.32.31-.63.62-.96.92-.02.02-.11.03-.18.02,0,0,0,0,0,0,.01-.02.02-.04.03-.06.05-.08.1-.17.15-.25.06-.09.12-.19.18-.28.08-.12.16-.25.25-.36.02-.03.02-.06,0-.08-.02-.02-.05-.03-.08-.03.29-.29.65-.53,1-.74h0s-.1-.03-.07-.07c.04-.05.07-.11.1-.16,0-.02.01-.03.02-.05-.01-.02-.03-.03-.04-.05-.1.06-.2.12-.28.2-.14.13-.25.39-.47.39-.01,0-.06,0-.09-.01-.03,0-.05-.01-.06-.02,0,0,0,0,0-.01,0,0,0-.01,0-.02,0,0,0,0,0-.01.01-.02.02-.04.03-.05,0-.02.02-.03.03-.05,0-.01.01-.03.02-.04.01-.03.03-.05.04-.08,0-.02.02-.04.03-.05.02-.04.05-.09.08-.13.01-.02.02-.04.04-.06.02-.04.04-.07.06-.11.03-.05,0-.09-.04-.11.11-.14.25-.26.41-.35h-.02c.23-.11.46-.25.68-.38.03-.03.07-.06.1-.08-.34.11-.64.27-.94.47,0,0-.08.03-.1.05,0,0-.07.03-.15-.05,0-.01-.01-.02-.01-.04.06-.12.24-.18.36-.3.06,0,.12,0,.12.06,1.9-1.49,4.52-1.13,6.72-1.9.18-.12.36-.24.53-.36.3-.12.54-.42.89-.59.48-.36.83-.77,1.01-1.37,0-.06-.06-.12-.06-.12-.77.83-1.66,1.49-2.62,1.96-1.25.65-2.62.53-3.92.71.06-.12.18-.12.29-.12,0-.18.12-.24.24-.36h.18c.06,0,.06-.12.12-.12.12,0,.3-.06.24-.06-.18-.24-.54.18-.83,0,.12-.12.06-.3.18-.36h.24c0-.12.12-.24.12-.24.89-.54,1.72-.95,2.56-1.43-.18,0-.3.18-.48.06.12,0,0-.18.12-.18.65-.18,1.19-.54,1.84-.77-.24,0-.42.18-.65,0,.12-.06.18-.18.36-.18v-.18c0-.06.06-.06.12-.06-.06,0-.12-.06-.12-.06.06-.12.24-.06.36-.18-.06,0-.18,0-.18-.06.18-.24.48-.3.77-.36-.06-.12-.24,0-.24-.12,0-.06.06-.06.12-.06h-.12c-.12-.06-.06-.18-.06-.24.36-.42.36-.95.54-1.42-.06,0-.12,0-.12-.06-.59.65-1.54.89-2.44,1.13h-.3c-.3.12-.71.12-1.01-.06-.24-.12-.36-.3-.59-.47-.48-.3-.95-.53-1.49-.71-1.49-.48-3.03-.71-4.58-.65.65-.36,1.38-.39,2.08-.59,1.01-.3,1.96-.65,3.03-.59-.18-.06-.41,0-.59,0-.83-.06-1.66.18-2.55.36-.59.12-1.13.36-1.72.48-.36.12-.53.47-.95.42v-.18c.59-.71,1.31-1.43,2.26-1.49,1.07-.18,2.08,0,3.15.12.77.06,1.48.24,2.26.42.3,0,.36.48.59.53.36.12.71,0,1.07.24,0-.12-.06-.24,0-.36.24-.24.54.06.77-.06.48-.3-.42-.83-.65-1.25,0-.06.06-.12.06-.12.48.42.83.89,1.43,1.19.3.12,1.01.3.89-.06-.3-.65-.89-1.19-1.37-1.78v-.24c-.12,0-.12-.06-.18-.12v-.24c-.24-.12-.18-.36-.3-.54-.18-.3-.06-.71-.18-1.07-.12-.36-.18-.65-.24-1.01-.18-1.01-.42-1.9-.54-2.85-.12-1.13.65-2.02,1.19-3.03.42-.71.89-1.43,1.66-1.9.18-.71.65-1.31,1.13-1.9.47-.58,1.26-.93,1.83-1.19.83-.37,1.58-.6,1.58-.6H0v31.45h28.88c1.13-.81,2.26-1.2,3.84-1.98.75-.37,2.45-1.15,3.03-1.73m-9.14-4.26c-.12,0-.36.06-.3-.06.06-.3.47-.3.71-.42.12-.06.3-.18.42-.12.12.18.3.12.42.24-.36.36-.83.18-1.25.36m-9.09-1.31s-.06-.06-.06-.12c.77-1.01,1.37-1.96,1.9-3.03.77-.42,1.41-1.02,2.02-1.66,1.01-1.07,2.08-2.02,3.33-2.62.48-.18,1.07-.12,1.55.06-.18.24-.48.18-.71.36-.06,0-.12,0-.18-.06.06-.06.06-.12.06-.18-.6.65-1.43.95-1.9,1.72-.36.59-.6,1.37-1.37,1.55-.24.06.06-.18-.06-.12-1.84,1.13-3.15,2.5-4.58,4.1m4.93-3.92c-.06.12-.12.13-.18.24-.06.12-.12.18-.24.24-.06,0-.12,0-.12-.06.06-.24.24-.48.48-.54.06,0,.06.06.06.12m2.76,8.9c-.03.06-.09.12-.15.17.07.01.13.05.08.09-.14.13-.27.25-.45.31-.01,0-.05,0-.09.01-.07.07-.15.14-.22.21-.07.06-.4.02-.3-.07.15-.13.29-.28.44-.41.08-.08.17-.15.25-.24.04-.05.07-.1.13-.13.05-.04.36-.06.31.05m-1.06-.49s0,0-.02.01c-.22.16-.44.32-.68.45-.25.15-.52.26-.78.38,0,0,0,0,0-.01-.02-.03-.06-.04-.1-.02-.22.12-.42.28-.6.46-.03.03-.06.05-.08.08,0,0,0,0,0,0,0,0,0,0,0,0-.03.03-.06.06-.08.08,0,0,0,0,0,0,0,0,0,0,0,0-.04.04-.08.08-.13.14-.03.04-.04.06-.08.08-.04.02-.14.02-.13-.04,0,0,0,0,0-.01-.04.02-.07.04-.11.05-.03.02-.06.03-.09.05-.01,0-.03,0-.04,0-.02,0-.03,0-.04.01-.07.06-.15.12-.21.18-.12.11-.24.24-.34.37,0,0,0,0,0,0,0,0,0,.01-.01.02,0,0-.01.02-.02.02s-.01.02-.02.02c0,0,0,0,0,0-.01.02-.03.04-.04.06,0,0,0,0,0,0,0,.01-.03.02-.05.02,0-.01-.02-.02-.02-.04,0,0-.01-.02-.02-.03-.02-.03-.04-.06-.05-.1,0,0,0,0,0,0,0-.01,0-.02-.01-.03.06-.07.13-.14.19-.21,0,0,0,0,.01-.01.02-.03.04-.05.06-.08.03-.04.07-.08.1-.13l.04-.05c.06-.09.13-.17.19-.25,0,0,0,0,0,0,0-.01.02-.02.03-.04.03-.04.06-.08.08-.13.02-.04.04-.08.06-.12,0,0,0,0,0,0,0,0,0,0,0-.01,0,0,0-.01,0-.02.02-.04.04-.09.06-.14,0,0,0-.01,0-.02,0-.01,0-.03.01-.04,0-.02.01-.04.02-.07,0,0,0,0,0-.01,0-.03.01-.06.02-.09,0-.02,0-.03,0-.04.06-.11.14-.22.24-.32,0,0-.02,0-.03.02-.09.05-.14.13-.22.19-.06.05-.18-.03-.11-.09.05-.04.09-.08.13-.12,0,0,0,0,0,0,.1-.1.19-.22.3-.3.07-.05.13-.09.18-.14,0,0,.02-.02.03-.02.04-.06.09-.1.13-.15h0c.57-.55,1.53-.53,2.28-.88.29-.12.65.06.95,0,.18,0,.36,0,.54.12-.53.29-1.03.62-1.51.92m1.22-4.13c-.06-.06.18,0,.24-.12h-.48c-.06,0-.06-.06-.06-.12-.3.06-.65.18-.95.24-.42.12-.77.42-1.25.54-.65.24-1.19.77-1.9,1.01-.06,0-.06-.06-.06-.12.06-.18.3-.24.42-.42,0-.06,0-.12-.06-.12.48-.65,1.13-1.01,1.72-1.54v-.18c.18-.24.47-.36.59-.65.06-.18.3-.42.6-.54-.06-.06-.18-.06-.18-.18-.24,0-.47.12-.71-.06.11-.11.24-.17.37-.21-.05,0-.1-.04-.13-.09-.06-.12.11-.25.3-.3.24-.06.54-.06.71-.24-.42-.06-.89.12-1.31-.12.3-.77.77-1.43,1.49-1.78.06,0,.18,0,.18.06,0,.3-.18.54-.47.6.47.12.95.12,1.43.36-.06.12-.18.06-.24.06.3.18.65.06.95.3-.18.18-.36,0-.53,0,1.84.54,3.8.95,5.35,2.14-1.31.65-2.67.95-4.1,1.25-.18,0-.3,0-.48-.06,0,.06,0,.18-.06.18-.24,0-.42,0-.59.12-.24.12-.6.18-.77,0"/>
    <path class="cls-1" d="m86.48,0h-33.83s.06.01.32.15c.27.15.63.34.85.46.44.23.86.51,1.13.95.12.18.3.54.18.77-.12.3-.18.77-.47.89-.36.18-.83.18-1.25.12-.24,0-.48-.06-.71-.12.89.36,1.72.77,2.32,1.6.06.12.3.18.54.18.06,0,.06.12.06.18-.12.12-.24.18-.18.36h.18c.3-.12.24-.71.65-.54.3.18.42.59.24.89-.24.24-.48.42-.71.59-.06.12-.06.3,0,.42.18.24.24.48.3.71.18.42.24.89.42,1.31.24.89.48,1.78.42,2.67,0,.48-.24.89-.06,1.37.12.47.42.83.65,1.25.24.36.48.59.65.95.36.59,1.01,1.19.71,1.9-.18.41-.83.36-1.25.59-.36.3-.06.77.12,1.07.3.54-.36.89-.77,1.07.12.18.36.12.41.24.06.3.36.48.18.77-.24.36-.95.54-.59,1.07.24.42.08.88-.06,1.31-.18.53-.65.77-1.07.89-.36.12-.77.12-1.13.06-.12-.06-.24-.12-.36-.12-1.01-.12-2.02-.42-3.03-.42-.3.06-.6.12-.83.24-.27.2-.51.41-.72.64,0,0,0,0,0,0-.04.05-.09.1-.13.14-.03.03-.05.06-.08.09-.02.02-.03.04-.05.06-.17.22-.33.45-.47.68,0,.01-.02.03-.03.05-.01.03-.03.05-.04.08-.2.36-.34.73-.45,1.09-.4,1.36-.23,2.53.06,2.81.08.08,1.96.66,3.27,1.24.62.27,1.05.49,1.4.71h33.22V0Z"/>
  </g>
</svg>