<?xml version="1.0" encoding="UTF-8"?>
<svg id="Calque_2" data-name="Calque 2" xmlns="http://www.w3.org/2000/svg" viewBox="0 0 112.51 112.51">
  <defs>
    <style>
      .cls-1 {
        fill: #1d1d1b;
      }
    </style>
  </defs>
  <g id="Calque_1-2" data-name="Calque 1">
    <g>
      <path class="cls-1" d="m32.98,74.73c-.78,0-1.3.59-1.3,1.54,0,.82.39,1.54,1.27,1.54s1.33-.69,1.33-1.55c0-1.14-.51-1.52-1.3-1.52h0Z"/>
      <path class="cls-1" d="m51.52,77.93c0-2.03-.73-3.01-2.02-3.01s-1.97,1.15-1.97,2.88c0,1.86.75,2.88,1.98,2.88s2-.9,2-2.75h0Z"/>
      <path class="cls-1" d="m62.56,94.12c-.5-1.68-.67-1.78-.96-1.78-.24,0,.02.38-.38,1.78l-1.03,3.62c-.02.07-.05.15-.05.19,0,.17.12.24.38.24h2.83c.26,0,.34-.05.34-.17,0-.07,0-.17-.05-.31l-1.08-3.58h0Z"/>
      <path class="cls-1" d="m11.2,71.96c-.59,0-1.25.05-1.57.1-.19.03-.27.05-.27.24,0,.24.06.51.06,1.07v1.79c0,.43.06.64.51.75.27.06.67.11,1.17.11,1.25,0,2.05-.67,2.05-1.98s-.67-2.08-1.95-2.08h0Z"/>
      <path class="cls-1" d="m19.41,91.51c-.7,0-1.42.07-1.85.14-.22.02-.34.07-.34.38,0,.36.1.89.1,1.56v2.18c0,.58.07.82.62.96.34.1.79.14,1.34.14,1.56,0,2.64-.91,2.64-2.66s-.84-2.71-2.52-2.71h0Z"/>
      <path class="cls-1" d="m107.21,93.95c0,1.06.38,1.51,1.42,1.51h3.77c.05,0,.08,0,.12,0v-3.27c-.65-.31-1.53-.5-2.4-.5-1.73,0-2.9.67-2.9,2.26h0Z"/>
      <path class="cls-1" d="m94.03,57.29c-5.48,2.36-7.87,1.59-8.54,1.26.77.47,3.6,2.41,6,6.74,2.8,5.06,2.54,8.39,2.54,8.39-14.03-3.59-27.37-9.59-39.22-17.95-11.48-8.09-21.27-18.32-29.12-29.94,11.22,8.31,23.48,11.25,36.31,12.07,20.45,1.3,30.99-9.73,30.99-9.73,0,0,.86,2.3-1.48,8.39-2.35,6.09-5.46,7.8-5.46,7.8,0,0,2.39-1.37,8.04.23,5.67,1.61,10.86,4.32,10.86,4.32,0,0-4.31,5.57-10.92,8.42h0Zm7.29,48.16c-.46.26-1.34.53-2.04.53-1.85,0-2.95-1.01-2.95-3.46v-5.42c0-3.48-.6-5.23-3.1-5.23s-3.02,2.21-3.02,5.21v7.34c0,.22.02.72.02.89,0,.36-.05.43-.31.43-.12,0-1.37-.09-1.37-.09,0,0-1.3.09-1.51.09-.17,0-.24-.12-.24-.36,0-.26.02-.62.02-.91v-7.85c0-1.37.22-2.59.67-3.48.1-.19.26-.6.26-.82,0-.26-.14-.48-.46-.77l-1.03-.94c-.07-.05-.31-.34-.34-.38-.05-.1-.1-.19-.1-.27,0-.1.05-.17.17-.24l.98-.62s.5-.31.55-.34c.09-.05.17-.05.26-.05.14,0,.26.05.41.14l1.13.86c.19.14.41.24.6.24.24,0,.7-.17.89-.26.91-.46,1.8-.81,2.88-.81,3.55,0,6,1.85,6,7.61v5.4c0,.77.26,1.1.67,1.1.48,0,.74-.34.96-.34.14,0,.19.05.19.27s-.07,1.13-.07,1.13c0,0,.1.79.1,1.03,0,.19-.05.24-.24.36h0Zm-17.5-1.13c0,.31-.1.31-.26.31-.22,0-1.32-.07-1.63-.07-.29,0-.5.07-.65.19-.91.77-2.4,1.22-4.03,1.22-3.91,0-6.19-2.3-6.19-8.45s2.83-8.64,6.43-8.64c1.46,0,3,.38,3.86,1.15.14.14.31.22.53.22.31,0,1.06-.02,1.23-.02.09,0,.17.12.17.21,0,.22-.02,1.87-.02,1.87,0,0,.05,1.82.05,2.02,0,.24-.02.29-.24.29-.17,0-1.08-.05-1.08-.05l-1.08.12c-.14,0-.24-.02-.24-.19,0-1.85-1.27-2.78-2.62-2.78-2.78,0-3.31,2.95-3.31,5.66,0,5.09,1.63,5.71,3.26,5.71,1.82,0,2.69-.84,2.69-2.02v-.53c0-.41-.14-.63-.53-.63h-1.2c-.24,0-.46.1-.55.1,0,0-.17-.07-.17-.14,0-.29.07-1.2.07-1.2,0,0-.03-.77-.03-1.01,0-.12.05-.22.36-.22h5.04c.29,0,.38.1.38.22,0,.17-.29.62-.29,1.03v3.79s.05,1.27.05,1.82h0Zm-19.53-22.76c0,.18-.03.22-.19.22-.11,0-.62-.05-.62-.05,0,0-.5.05-.59.05-.18,0-.19-.03-.19-.22,0-.13.02-.34.02-.46v-3.3c0-1.86-.51-2.78-1.81-2.78-1.47,0-1.9,1.17-1.9,2.78v3.34c0,.1.02.38.02.46,0,.13-.03.18-.21.18-.11,0-.61-.05-.61-.05,0,0-.4.05-.54.05-.16,0-.22,0-.22-.16,0-.13.02-.3.02-.45v-3.7c0-.96.21-1.39.38-1.71.06-.11.1-.21.1-.29,0-.13-.1-.26-.26-.4l-.67-.61c-.1-.08-.14-.16-.14-.24,0-.06.03-.11.1-.14l.54-.35c.08-.05.1-.07.18-.07.06,0,.13.05.18.08l.77.54c.11.08.21.1.29.1.11,0,.24-.08.37-.16.64-.4,1.2-.56,2.05-.56,1.55,0,2.94,1.06,2.94,3.81v3.28c0,.37.03.62.03.8h0Zm5.51,23.99c-.46.24-1.29.43-1.92.43-1.25,0-2.18-.55-2.64-2.09l-.72-2.38c-.07-.26-.07-1.03-.65-1.03-.22,0-.84.34-1.18.34l-2.5.02c-.55,0-.72.05-.89.62l-.89,3.05c-.26.93-.14,1.37-.55,1.37-.24,0-1.34-.17-1.34-.17h-1.66c-.22,0-.24-.07-.24-.24,0-.22.22-.65.41-1.25l4.01-13.06c.53-1.7.24-2.02,1.3-2.02.22,0,1.44.07,1.44.07,0,0,1.44-.07,1.56-.07.72,0,.82.02,1.34,1.73l3.34,10.56c.34,1.06.65,1.42,1.13,1.42.29,0,.55-.17.67-.17s.17.07.17.26c0,.24-.07,1.01-.07,1.01,0,0,.12.98.12,1.2,0,.24-.02.26-.24.38h0Zm-23.94-27.79c0-1.39.66-2.61,1.3-3.17.83,0,1.1-.91,2.59-.91,2.11,0,3.44,1.38,3.44,4.26,0,2.7-1.49,4.02-3.61,4.02-2.61,0-3.71-1.62-3.71-4.19h0Zm8.35,14.26c-.26,0-.74-.05-1.49-.05h-2.09c-.62,0-.7.22-.7.62v9.22c0,.98.31,1.2.7,1.2s.74-.34.96-.34c.12,0,.19.02.19.24v1.08s.14.96.14,1.1c0,.19-.05.24-.24.36-.55.34-1.77.53-2.3.53-1.9,0-2.83-.98-2.83-3.02v-9.55c0-.34.26-.96.26-1.2,0-.14-.14-.26-.46-.26-.24,0-1.77.02-1.82.02-.36,0-1.97.1-2.16.1-.24,0-.29-.1-.29-.26,0-.19.05-1.3.05-1.3,0,0-.07-.82-.07-1.01,0-.29.07-.34.38-.34h10.42c1.06,0,1.22-.29,1.49-.29.05,0,.15.03.15.14,0,.26-.05,1.25-.05,1.25,0,0,.07,1.27.07,1.46,0,.24-.07.29-.31.29h0Zm-14.01-20.72c0-.14.03-.22.18-.22h.99c.13,0,.18.08.18.21,0,.14-.05.3-.05.42,0,.16.05.35.05.5,0,.13-.03.21-.16.21h-.99c-.14,0-.19-.1-.19-.24,0-.13.03-.3.03-.48,0-.13-.03-.27-.03-.38h0Zm1.47,10.5c-.16,0-.74-.05-.74-.05,0,0-.51.05-.67.05-.13,0-.16-.05-.16-.18,0-.1.02-.24.02-.42v-6.02c0-.4-.05-.85-.05-1.07s.05-.26.21-.26c.1,0,.62.05.62.05,0,0,.5-.05.62-.05.14,0,.18.03.18.18,0,.11-.03.3-.03.5v5.9c0,.67.11,1.04.11,1.22,0,.1-.03.14-.11.14h0Zm-5.97-5.57c0,1.62-1.12,2.56-2.54,2.56-.29,0-.37.22-.37.66,0,.91,2.08,1.58,2.08,3.26,0,1.31-1.02,2.08-2.5,2.08-.32,0-.54-.02-.77-.08-.13-.03-.14-.06-.16-.16-.02-.16-.08-.54-.08-.54,0,0-.13-.54-.13-.61,0-.08.03-.11.11-.11.1,0,.56.18.93.18.57,0,.96-.24.96-.75,0-1.14-2.02-1.58-2.02-3.17,0-.37.24-.58.24-.74v-.1c0-.16-.02-.21-.29-.4-.66-.46-.93-1.2-.93-2,0-1.54,1.01-2.54,2.67-2.54.58,0,2.38.1,2.7.1.08,0,.13.08.13.13,0,.16-.32.27-.32.67,0,.32.27.94.27,1.57h0Zm5.24,28.2c-.19,0-.89-.05-.94-.05-.26,0-.36.05-.65.26-1.34,1.01-3.14,1.34-4.82,1.34-3.74,0-5.98-1.94-5.98-5.35,0-2.5,1.39-3.55,1.39-4.37,0-.65-.43-1.44-.43-2.57,0-3.19,2.62-4.8,5.64-4.8,1.54,0,3.1.19,4.18.79.24.14.29.19.29.41,0,.17-.31,1.2-.31,1.2,0,0-.02,1.46-.19,1.46,0,0-.22-.05-.38-.19-.62-.5-1.82-.87-3-.87-1.73,0-2.9.67-2.9,2.26,0,1.06.38,1.51,1.42,1.51h3.77c.34,0,.36.05.36.36,0,.17-.05,1.06-.05,1.06,0,0,.07.96.07,1.2,0,.29-.12.29-.38.29h-4.44c-1.01,0-1.44.74-1.44,1.68,0,1.8.98,3,3.24,3,2.06,0,3.1-1.3,3.1-2.42,0-.22.02-.29.22-.29.17,0,.96.02.96.02,0,0,1.1-.05,1.27-.05.22,0,.27.02.27.29,0,.36-.05,1.63-.05,1.63,0,0,.07,1.54.07,1.92,0,.17-.07.26-.26.26h0Zm-13.97.74c0,.19-.07.29-.24.36-.67.29-1.08.46-1.82.46-1.56,0-2.54-.67-3.36-2.28l-1.99-3.96c-.19-.38-.36-.5-.77-.53-1.22-.1-.96-.07-1.1-.07-.31,0-.36.17-.36.48v5.76c0,.24-.02.36-.26.36-.22,0-1.42-.09-1.46-.09-.07,0-1.3.09-1.51.09-.14,0-.17-.05-.17-.12,0-.17.14-.43.14-.6v-15.19c0-.31.12-.41.29-.43,1.37-.24,3.86-.41,5.86-.41,3.05,0,5.21,1.46,5.21,4.92,0,1.99-1.06,3.67-2.52,4.37-.22.1-.29.19-.29.29,0,.07.05.17.12.31.48.94,1.15,2.11,1.63,2.98.48.84,1.01,1.13,1.46,1.13.58,0,.79-.26,1.03-.26.12,0,.17.07.17.22,0,.17-.1,1.27-.1,1.27,0,0,.05.82.05.96h0Zm-13.96-24.55l-1.5-2.85c-.16-.32-.34-.43-.66-.46-.7-.06-1.02-.1-1.17-.1-.22,0-.26.14-.26.35v4.03c0,.11,0,.19-.14.19-.1,0-.64-.03-.72-.05-.08.02-.64.05-.75.05-.1,0-.1-.02-.1-.06,0-.08.08-.24.08-.35v-10.22c0-.21.06-.27.18-.29.77-.13,2.42-.24,3.58-.24,1.92,0,3.35,1.01,3.35,3.28,0,1.34-.74,2.45-1.68,2.86-.16.06-.22.13-.22.22,0,.06.03.14.1.26.38.72,1.02,1.79,1.41,2.45.32.53.59.66.88.66.32,0,.48-.14.59-.14.08,0,.1.06.1.14s-.05.61-.05.61c0,0,.02.45.02.56,0,.1-.03.11-.13.18-.21.14-.75.26-.98.26-.83,0-1.42-.4-1.92-1.33h0ZM8.28,8.12s4.19-.86,8.78,3.61c4.6,4.47,3.57,8.98,3.57,8.98,0,0-4.41,1.24-8.9-3.34-4.49-4.58-3.45-9.25-3.45-9.25h0Zm8.94,26.56c-5.1,3.86-8.99,1.53-8.99,1.53,0,0-.24-4.32,4.53-8.12,4.77-3.8,8.85-2.29,8.85-2.29,0,0,.71,5.02-4.39,8.88h0Zm5.55,37.89l.45-1.66c.08-.27.07-.37.18-.37.1,0,.19.02.34.02h.96c.11,0,.22,0,.22.11,0,.07-.02.13-.06.21l-.8,1.54c-.37.72-.29.75-.53.75h-.82c-.13,0-.14-.03-.14-.09,0-.08.11-.13.21-.5h0Zm.72,7.95c.86,0,1.86-.4,2.27-.88.08-.08.14-.11.21-.11.08,0,.11.05.11.16,0,.16-.07.67-.07.67,0,0,.02.48.02.62,0,.1-.02.16-.11.24-.58.45-1.73.72-2.66.72-2.5,0-3.74-1.55-3.74-4.16,0-2.42,1.3-4.11,3.63-4.11,1.71,0,3.02.88,3.02,2.7,0,.26-.08.71-.16.98-.1.32-.21.4-.5.4h-3.76c-.42,0-.58.05-.58.34,0,1.42.91,2.43,2.3,2.43h0ZM29.27,12.26c3.97-4.63,8.28-4.25,8.28-4.25,0,0,2.19,3.97-1.84,8.93-4.03,4.96-9.03,4.08-9.03,4.08,0,0-1.37-4.13,2.59-8.77h0ZM0,0v89.23s.03-.05.07-.05c.07,0,.26.07.34.07.36,0,3.29-.26,5.5-.26,3.26,0,5.06,1.42,5.06,4.1,0,1.34-.65,2.59-1.63,3.17-.22.12-.31.22-.31.38,0,.14.12.24.34.31,1.56.48,2.54,2.04,2.54,3.94,0,3.31-2.28,5.09-5.78,5.09-1.9,0-3.36-.5-4.32-1.7-.26-.34-.29-.38-.67-.38H.24c-.19,0-.24-.07-.24-.38v8.99h112.51v-7.18c-1.12.48-2.39.65-3.6.65-3.74,0-5.97-1.94-5.97-5.35,0-2.5,1.39-3.55,1.39-4.37,0-.65-.43-1.44-.43-2.57,0-3.19,2.62-4.8,5.64-4.8,1.04,0,2.07.1,2.97.34V0H0Z"/>
      <path class="cls-1" d="m3.21,100.56c0,1.73.74,2.95,2.57,2.95,1.58,0,2.5-1.06,2.5-2.78,0-2.06-1.34-2.64-2.95-2.64h-1.7c-.17,0-.19-.22-.31-.22-.07,0-.1.12-.1.6v2.09h0Z"/>
      <path class="cls-1" d="m21.92,76.74h2.37c.26,0,.4-.08.4-.56,0-.88-.75-1.41-1.63-1.41-1.06,0-1.79.85-1.79,1.84,0,.19.05.27.18.27.14,0,.34-.14.48-.14h0Z"/>
      <path class="cls-1" d="m107.95,98.37c-1.01,0-1.44.74-1.44,1.68,0,1.8.98,3,3.24,3,1.4,0,2.31-.59,2.76-1.33v-3.36s-.07,0-.12,0h-4.44Z"/>
      <path class="cls-1" d="m3.57,95.68h1.8c1.27,0,2.26-.55,2.26-2.28,0-1.42-.98-2.06-2.16-2.06-.86,0-1.7.05-1.97.1-.24.05-.29.14-.29.53v3.34c0,.27.02.38.36.38h0Z"/>
    </g>
  </g>
</svg>